<?xml version="1.0" standalone="no"?><svg xmlns="http://www.w3.org/2000/svg" viewBox="0 0 1440 320"><path fill="#00cba9" fill-opacity="1" d="M0,64L18.5,80C36.9,96,74,128,111,128C147.7,128,185,96,222,106.7C258.5,117,295,171,332,197.3C369.2,224,406,224,443,192C480,160,517,96,554,90.7C590.8,85,628,139,665,144C701.5,149,738,107,775,101.3C812.3,96,849,128,886,128C923.1,128,960,96,997,74.7C1033.8,53,1071,43,1108,74.7C1144.6,107,1182,181,1218,192C1255.4,203,1292,149,1329,149.3C1366.2,149,1403,203,1422,229.3L1440,256L1440,320L1421.5,320C1403.1,320,1366,320,1329,320C1292.3,320,1255,320,1218,320C1181.5,320,1145,320,1108,320C1070.8,320,1034,320,997,320C960,320,923,320,886,320C849.2,320,812,320,775,320C738.5,320,702,320,665,320C627.7,320,591,320,554,320C516.9,320,480,320,443,320C406.2,320,369,320,332,320C295.4,320,258,320,222,320C184.6,320,148,320,111,320C73.8,320,37,320,18,320L0,320Z"></path></svg>